<?xml version="1.0" encoding="UTF-8" standalone="no"?>
<!DOCTYPE svg PUBLIC "-//W3C//DTD SVG 1.1//EN" "http://www.w3.org/Graphics/SVG/1.1/DTD/svg11.dtd">
<svg width="100%" height="100%" viewBox="0 0 196 97" version="1.1" xmlns="http://www.w3.org/2000/svg" xmlns:xlink="http://www.w3.org/1999/xlink" xml:space="preserve" xmlns:serif="http://www.serif.com/" style="fill-rule:evenodd;clip-rule:evenodd;stroke-linejoin:round;stroke-miterlimit:2;">
    <g>
        <g>
            <g id="A">
                <path d="M23.69,0C36.677,0.005 47.36,10.693 47.36,23.68C47.36,36.67 36.67,47.36 23.68,47.36C10.69,47.36 0,36.67 0,23.68C0.005,10.688 10.698,-0 23.69,0Z" style="fill:rgb(20,20,20);fill-rule:nonzero;"/>
            </g>
        </g>
        <g>
            <g id="B">
                <path d="M73.08,0C86.076,-0 96.77,10.694 96.77,23.69C96.77,36.686 86.076,47.38 73.08,47.38C60.084,47.38 49.39,36.686 49.39,23.69C49.395,10.696 60.086,0.005 73.08,0Z" style="fill:rgb(20,20,20);fill-rule:nonzero;"/>
            </g>
        </g>
        <g>
            <g id="Y">
                <path d="M171.87,0C184.866,-0 195.56,10.694 195.56,23.69C195.56,36.686 184.866,47.38 171.87,47.38C158.874,47.38 148.18,36.686 148.18,23.69C148.18,10.694 158.874,0 171.87,0Z" style="fill:rgb(20,20,20);fill-rule:nonzero;"/>
            </g>
        </g>
        <g>
            <g id="X">
                <path d="M122.47,0C122.473,-0 122.477,-0 122.48,-0C135.476,-0 146.17,10.694 146.17,23.69C146.17,36.686 135.476,47.38 122.48,47.38C109.484,47.38 98.79,36.686 98.79,23.69C98.795,10.7 109.48,0.011 122.47,-0Z" style="fill:rgb(20,20,20);fill-rule:nonzero;"/>
            </g>
        </g>
    </g>
    <g>
        <g>
            <g id="A-2">
                <path d="M23.69,49.38C36.677,49.385 47.36,60.073 47.36,73.06C47.36,86.05 36.67,96.74 23.68,96.74C10.69,96.74 0,86.05 0,73.06L-0,73.06C-0,60.07 10.69,49.38 23.68,49.38C23.683,49.38 23.687,49.38 23.69,49.38Z" style="fill:rgb(20,20,20);fill-rule:nonzero;"/>
            </g>
            <g>
                <path d="M32.45,88.21L29.67,80.55L17.54,80.55L14.9,88.21L9.42,88.21L20.88,57.9L26.47,57.9L38,88.21L32.45,88.21ZM23.66,62.46L23.53,62.46C23.453,63.197 23.302,63.923 23.08,64.63L18.94,76.31L28.24,76.31L24.07,64.63C23.865,63.921 23.728,63.195 23.66,62.46Z" style="fill:rgb(20,20,20);fill-rule:nonzero;"/>
            </g>
        </g>
        <g>
            <g id="B-2">
                <path d="M73.08,49.37C86.076,49.37 96.77,60.064 96.77,73.06C96.77,86.056 86.076,96.75 73.08,96.75C60.084,96.75 49.39,86.056 49.39,73.06C49.395,60.066 60.086,49.375 73.08,49.37Z" style="fill:rgb(20,20,20);fill-rule:nonzero;"/>
            </g>
            <g>
                <path d="M83.29,79.38C83.364,81.849 82.279,84.215 80.36,85.77C78.215,87.464 75.53,88.33 72.8,88.21L62.89,88.21L62.89,57.9L72.46,57.9C74.893,57.776 77.303,58.438 79.33,59.79C80.969,60.955 81.917,62.87 81.85,64.88C81.873,66.457 81.342,67.993 80.35,69.22C79.329,70.506 77.929,71.44 76.35,71.89L76.35,72C78.27,72.154 80.071,72.996 81.42,74.37C82.666,75.736 83.336,77.532 83.29,79.38ZM76.52,65.84C76.566,64.748 76.068,63.701 75.19,63.05C73.992,62.311 72.594,61.961 71.19,62.05L67.93,62.05L67.93,70.43L71.16,70.43C72.594,70.528 74.017,70.102 75.16,69.23C76.098,68.361 76.597,67.116 76.52,65.84ZM78,79.25C78.063,77.931 77.485,76.66 76.45,75.84C75.066,74.933 73.42,74.507 71.77,74.63L67.93,74.63L67.93,84.05L72.17,84.05C73.694,84.137 75.2,83.671 76.41,82.74C77.46,81.893 78.05,80.598 78,79.25Z" style="fill:rgb(20,20,20);fill-rule:nonzero;"/>
            </g>
        </g>
        <g>
            <g id="Y-2">
                <path d="M171.87,49.37C184.866,49.37 195.56,60.064 195.56,73.06C195.56,86.056 184.866,96.75 171.87,96.75C158.874,96.75 148.18,86.056 148.18,73.06C148.185,60.066 158.876,49.375 171.87,49.37Z" style="fill:rgb(20,20,20);fill-rule:nonzero;"/>
            </g>
        </g>
        <g>
            <g id="X-2">
                <path d="M122.47,49.37C122.473,49.37 122.477,49.37 122.48,49.37C135.476,49.37 146.17,60.064 146.17,73.06C146.17,86.056 135.476,96.75 122.48,96.75C109.484,96.75 98.79,86.056 98.79,73.06C98.795,60.07 109.48,49.381 122.47,49.37Z" style="fill:rgb(20,20,20);fill-rule:nonzero;"/>
            </g>
        </g>
    </g>
    <g transform="matrix(1,0,0,1,0.942482,0.134478)">
        <text x="8px" y="39px" style="font-family:'NeoTech', 'Neo Tech', cursive;font-size:46.614px;fill:rgb(240,0,0);">A</text>
    </g>
    <g transform="matrix(1,0,0,1,50.9425,0.134478)">
        <text x="8px" y="39px" style="font-family:'NeoTech', 'Neo Tech', cursive;font-size:46.614px;fill:rgb(240,0,0);">B</text>
    </g>
    <g transform="matrix(1,0,0,1,100.182,0.484479)">
        <text x="8px" y="39px" style="font-family:'NeoTech', 'Neo Tech', cursive;font-size:46.614px;fill:rgb(240,0,0);">c</text>
    </g>
    <g transform="matrix(1,0,0,1,149.182,-0.185521)">
        <text x="8px" y="39px" style="font-family:'NeoTech', 'Neo Tech', cursive;font-size:46.614px;fill:rgb(240,0,0);">d</text>
    </g>
    <g transform="matrix(1,0,0,1,0.942482,49.3743)">
        <text x="8px" y="39px" style="font-family:'NeoTech', 'Neo Tech', cursive;font-size:46.614px;fill:white;">A</text>
    </g>
    <g transform="matrix(1,0,0,1,50.9425,49.3743)">
        <text x="8px" y="39px" style="font-family:'NeoTech', 'Neo Tech', cursive;font-size:46.614px;fill:white;">B</text>
    </g>
    <g transform="matrix(1,0,0,1,100.182,49.7243)">
        <text x="8px" y="39px" style="font-family:'NeoTech', 'Neo Tech', cursive;font-size:46.614px;fill:white;">c</text>
    </g>
    <g transform="matrix(1,0,0,1,149.182,49.0543)">
        <text x="8px" y="39px" style="font-family:'NeoTech', 'Neo Tech', cursive;font-size:46.614px;fill:white;">d</text>
    </g>
</svg>
